<svg width="22" height="15" viewBox="0 0 22 15" fill="none" xmlns="http://www.w3.org/2000/svg">
<g clip-path="url(#clip0_528_282)">
<path fill-rule="evenodd" clip-rule="evenodd" d="M7.16507 11.7134C5.26847 12.3216 3.40685 12.4318 1.25343 11.0517C0.950006 10.8573 0.546396 10.9456 0.35194 11.2491C0.157485 11.5525 0.245822 11.9561 0.549246 12.1505C3.12042 13.7983 5.4119 13.6461 7.5636 12.9561C8.48835 12.6596 9.40163 12.2592 10.2881 11.8706C10.4097 11.8173 10.5307 11.7643 10.6512 11.7117C11.6655 11.2695 12.655 10.8573 13.6766 10.5927C14.0254 10.5024 14.235 10.1463 14.1446 9.79741C14.0543 9.44853 13.6982 9.23897 13.3493 9.32934C12.2182 9.62233 11.1454 10.0725 10.1296 10.5154C10.0062 10.5692 9.88372 10.6229 9.76213 10.6762C8.86848 11.0676 8.02117 11.4388 7.16507 11.7134Z" fill="black"/>
<path fill-rule="evenodd" clip-rule="evenodd" d="M7.71116 7.21717C5.44877 8.0871 3.39465 8.43546 1.27576 6.91595C0.982897 6.70592 0.575227 6.77308 0.365204 7.06594C0.155182 7.35881 0.222339 7.76648 0.515204 7.9765C3.17885 9.88669 5.78395 9.35645 8.17956 8.4353C8.77711 8.20553 9.37177 7.9476 9.95387 7.69367C9.98735 7.67906 10.0208 7.66447 10.0542 7.6499C10.6056 7.40925 11.1456 7.1736 11.6861 6.95974C12.835 6.50515 13.9349 6.17072 15.0216 6.12062C15.3816 6.10402 15.66 5.79873 15.6434 5.43872C15.6268 5.07872 15.3215 4.80033 14.9615 4.81693C13.6594 4.87696 12.4007 5.27348 11.2059 5.74621C10.6436 5.96872 10.084 6.21291 9.53753 6.45142C9.50231 6.46679 9.46714 6.48214 9.43203 6.49746C8.84787 6.75229 8.27811 6.99917 7.71116 7.21717Z" fill="black"/>
<path fill-rule="evenodd" clip-rule="evenodd" d="M5.31703 3.71197C3.80252 3.92065 2.4643 3.71972 1.29702 2.78498C1.01572 2.55971 0.605056 2.60514 0.37979 2.88645C0.154523 3.16776 0.199953 3.57842 0.481261 3.80368C2.01329 5.03051 3.75062 5.2452 5.49517 5.00483C7.17222 4.77376 8.92364 4.11182 10.5854 3.48377C10.6251 3.46878 10.6647 3.45381 10.7042 3.43886C12.4383 2.78372 14.0732 2.17642 15.5905 1.99622C17.076 1.81978 18.3829 2.06091 19.5182 3.05295C19.7896 3.29008 20.2018 3.26232 20.4389 2.99093C20.6761 2.71955 20.6483 2.30732 20.3769 2.07019C18.8866 0.76798 17.1732 0.493975 15.4365 0.700248C13.7316 0.902751 11.9423 1.57601 10.243 2.21801L10.2012 2.23379C8.48015 2.88404 6.84666 3.50121 5.31703 3.71197Z" fill="black"/>
<path fill-rule="evenodd" clip-rule="evenodd" d="M16.8043 12.484C17.2123 12.8497 17.7861 13.034 18.3124 13.0333C18.8638 13.0326 19.4542 12.8501 19.8596 12.4949C20.2139 12.1843 20.5445 11.6439 20.4639 10.6163C20.3726 9.45254 19.9347 8.28097 19.4224 7.28908C19.0217 6.51299 18.6004 5.8948 18.3346 5.53957C18.0619 5.89195 17.6107 6.53071 17.1868 7.32753C16.6497 8.3369 16.2127 9.49531 16.1564 10.5906C16.1049 11.5926 16.4363 12.1542 16.8043 12.484ZM18.3141 14.3384C16.7202 14.3406 14.7127 13.2544 14.853 10.5236C14.9933 7.79278 16.9784 5.10975 17.5088 4.48477C18.0393 3.85978 18.6326 3.83524 19.1648 4.48253C19.697 5.12982 21.5451 7.71196 21.7649 10.5143C21.9847 13.3166 19.9081 14.3363 18.3141 14.3384Z" fill="black"/>
</g>
<defs>
<clipPath id="clip0_528_282">
<rect width="21.5342" height="13.7025" fill="white" transform="translate(0.23291 0.660156) rotate(-0.0773636)"/>
</clipPath>
</defs>
</svg>
