<svg width="21" height="28" viewBox="0 0 21 28" fill="none" xmlns="http://www.w3.org/2000/svg">
<g clip-path="url(#clip0_528_238)">
<path fill-rule="evenodd" clip-rule="evenodd" d="M10.2123 27.0146C10.2123 27.0146 20.3785 19.8183 20.3654 10.1536C20.3579 4.5472 15.795 0.0069931 10.1759 0.0145803C4.55673 0.0221676 0.00613872 4.57468 0.0137087 10.181C0.0267577 19.8451 10.2123 27.0146 10.2123 27.0146ZM10.1784 1.90458C5.59903 1.91076 1.89755 5.62 1.90371 10.1785C1.90935 14.3567 4.13008 18.1389 6.55852 20.9984C7.75437 22.4066 8.95408 23.5357 9.85448 24.3117C9.97895 24.4189 10.0974 24.5192 10.2091 24.6124C10.3205 24.5189 10.4387 24.4183 10.5629 24.3108C11.4612 23.5324 12.6578 22.4001 13.8499 20.9888C16.2706 18.1228 18.4811 14.3346 18.4754 10.1561C18.4693 5.59763 14.7578 1.8984 10.1784 1.90458Z" fill="black"/>
<path fill-rule="evenodd" clip-rule="evenodd" d="M10.1948 6.62933C8.07332 6.63219 6.35581 8.35435 6.35867 10.4759C6.36154 12.5974 8.0837 14.3149 10.2052 14.312C12.3267 14.3092 14.0443 12.587 14.0414 10.4655C14.0385 8.34398 12.3164 6.62647 10.1948 6.62933ZM4.46868 10.4784C4.4644 7.31309 7.02695 4.74361 10.1923 4.73933C13.3576 4.73506 15.9271 7.29761 15.9314 10.463C15.9357 13.6283 13.3731 16.1978 10.2078 16.202C7.04243 16.2063 4.47295 13.6438 4.46868 10.4784Z" fill="black"/>
</g>
<defs>
<clipPath id="clip0_528_238">
<rect width="20.3517" height="27" fill="white" transform="translate(0 0.0283203) rotate(-0.0773636)"/>
</clipPath>
</defs>
</svg>
