<svg width="22" height="18" viewBox="0 0 22 18" fill="none" xmlns="http://www.w3.org/2000/svg">
<g clip-path="url(#clip0_528_274)">
<path fill-rule="evenodd" clip-rule="evenodd" d="M15.295 11.5117C15.8742 12.031 16.6734 12.2832 17.3991 12.2822C18.1499 12.2812 18.97 12.0348 19.5484 11.5278C20.0758 11.0655 20.5227 10.2854 20.4145 8.9064C20.2957 7.39126 19.7283 5.88216 19.0769 4.62031C18.4286 3.36464 17.7375 2.43123 17.4563 2.08907C17.4477 2.07862 17.4394 2.06884 17.4314 2.05968C17.4181 2.07403 17.4039 2.08994 17.389 2.10755C17.1106 2.43566 16.3792 3.3932 15.7028 4.66483C15.0204 5.94754 14.4503 7.44533 14.3765 8.88299C14.3074 10.2275 14.7558 11.0284 15.295 11.5117ZM17.4008 13.5873C15.4078 13.59 12.8977 12.2315 13.0731 8.81605C13.2486 5.40056 15.7306 2.04484 16.3939 1.26316C17.0572 0.481483 17.799 0.450788 18.4645 1.26036C19.1299 2.06994 21.4408 5.29947 21.7156 8.80438C21.9904 12.3093 19.3939 13.5846 17.4008 13.5873Z" fill="black"/>
<path fill-rule="evenodd" clip-rule="evenodd" d="M2.75925 8.69074C3.13698 9.02736 3.67207 9.19953 4.16514 9.19887C4.68324 9.19817 5.2342 9.02726 5.60904 8.70062C5.932 8.41919 6.23994 7.92693 6.16458 6.97151C6.07836 5.87831 5.66408 4.77406 5.17666 3.83549C4.81648 3.14193 4.43895 2.58189 4.18578 2.23965C3.9243 2.5815 3.51989 3.16026 3.1386 3.87281C2.62733 4.82827 2.21475 5.91891 2.16172 6.94516C2.11358 7.87694 2.42237 8.39053 2.75925 8.69074ZM4.1669 10.5039C2.64321 10.506 0.724256 9.47359 0.858384 6.87782C0.992512 4.28204 2.89006 1.73168 3.39716 1.1376C3.90425 0.54352 4.47141 0.520188 4.98014 1.13546C5.48887 1.75073 7.25553 4.20516 7.46562 6.8689C7.67571 9.53263 5.69059 10.5019 4.1669 10.5039Z" fill="black"/>
<path fill-rule="evenodd" clip-rule="evenodd" d="M8.83486 15.7679C9.10309 16.0099 9.49124 16.1387 9.85175 16.1382C10.2376 16.1377 10.6387 16.0075 10.9026 15.7747C11.1165 15.5859 11.3544 15.2351 11.2959 14.4836C11.1838 13.0451 10.3868 11.6231 9.86609 10.8535C9.67013 11.133 9.42737 11.5107 9.19497 11.9504C8.7765 12.7422 8.44718 13.6316 8.40512 14.4561C8.36773 15.189 8.6059 15.5613 8.83486 15.7679ZM10.2382 10.3675C10.2382 10.3676 10.237 10.3689 10.2344 10.3711C10.2369 10.3686 10.2382 10.3674 10.2382 10.3675ZM9.85351 17.4433C8.58624 17.445 6.99022 16.5756 7.10173 14.3897C7.21325 12.2037 8.79143 10.0561 9.21318 9.55582C9.63492 9.05555 10.1066 9.03591 10.5298 9.55405C10.9529 10.0722 12.4223 12.1391 12.597 14.3822C12.7718 16.6254 11.1208 17.4416 9.85351 17.4433Z" fill="black"/>
</g>
<defs>
<clipPath id="clip0_528_274">
<rect width="20.8811" height="16.768" fill="white" transform="translate(0.843018 0.6875) rotate(-0.0773636)"/>
</clipPath>
</defs>
</svg>
