<svg width="80" height="87" viewBox="0 0 80 87" fill="none" xmlns="http://www.w3.org/2000/svg">
<g clip-path="url(#clip0_528_636)">
<path d="M46.1015 31.0114C46.1126 39.1898 39.4917 45.8286 31.3133 45.8396C23.1349 45.8507 16.4961 39.2297 16.4851 31.0514C16.474 22.873 23.095 16.2342 31.2733 16.2232C39.4517 16.2121 46.0905 22.833 46.1015 31.0114Z" fill="white"/>
<path fill-rule="evenodd" clip-rule="evenodd" d="M31.2749 17.5349C23.8214 17.5449 17.7873 23.5953 17.7974 31.0488C17.8074 38.5023 23.8579 44.5364 31.3113 44.5263C38.7648 44.5163 44.7989 38.4658 44.7888 31.0124C44.7788 23.5589 38.7284 17.5248 31.2749 17.5349ZM15.1724 31.0524C15.1604 22.1491 22.3681 14.9219 31.2713 14.9099C40.1746 14.8979 47.4018 22.1056 47.4138 31.0088C47.4258 39.912 40.2181 47.1393 31.3149 47.1513C22.4117 47.1633 15.1844 39.9556 15.1724 31.0524Z" fill="black"/>
<path fill-rule="evenodd" clip-rule="evenodd" d="M31.4849 0.658999C32.2097 0.65802 32.7982 1.24485 32.7991 1.96972L32.8088 9.09922C32.8097 9.82409 32.2229 10.4125 31.498 10.4135C30.7732 10.4145 30.1848 9.82763 30.1838 9.10277L30.1742 1.97326C30.1732 1.24839 30.76 0.659978 31.4849 0.658999Z" fill="black"/>
<path fill-rule="evenodd" clip-rule="evenodd" d="M31.5535 51.6483C32.2783 51.6473 32.8668 52.2341 32.8677 52.959L32.8774 60.0885C32.8783 60.8133 32.2915 61.4018 31.5666 61.4027C30.8418 61.4037 30.2534 60.8169 30.2524 60.092L30.2428 52.9625C30.2418 52.2377 30.8286 51.6492 31.5535 51.6483Z" fill="black"/>
<path fill-rule="evenodd" clip-rule="evenodd" d="M61.0287 31.5122C61.0297 32.2371 60.4429 32.8255 59.718 32.8265L52.5886 32.8361C51.8637 32.8371 51.2753 32.2503 51.2743 31.5254C51.2733 30.8005 51.8601 30.2121 52.585 30.2111L59.7145 30.2015C60.4394 30.2005 61.0278 30.7873 61.0287 31.5122Z" fill="black"/>
<path fill-rule="evenodd" clip-rule="evenodd" d="M10.0392 31.5816C10.0402 32.3064 9.45339 32.8948 8.72852 32.8958L1.59906 32.9054C0.874187 32.9064 0.285772 32.3196 0.284793 31.5947C0.283815 30.8699 0.870643 30.2814 1.59551 30.2805L8.72498 30.2708C9.44985 30.2699 10.0383 30.8567 10.0392 31.5816Z" fill="black"/>
<path fill-rule="evenodd" clip-rule="evenodd" d="M51.2342 53.4081C50.7223 53.9213 49.8913 53.9225 49.3781 53.4106L44.3299 48.3761C43.8167 47.8642 43.8156 47.0332 44.3274 46.5199C44.8393 46.0067 45.6703 46.0056 46.1836 46.5174L51.2317 51.5519C51.7449 52.0638 51.7461 52.8948 51.2342 53.4081Z" fill="black"/>
<path fill-rule="evenodd" clip-rule="evenodd" d="M15.1307 17.4012C14.6188 17.9145 13.7878 17.9156 13.2745 17.4037L8.22643 12.3692C7.71318 11.8574 7.71206 11.0263 8.22392 10.5131C8.73579 9.99984 9.56681 9.99872 10.0801 10.5106L15.1282 15.5451C15.6414 16.057 15.6425 16.888 15.1307 17.4012Z" fill="black"/>
<path fill-rule="evenodd" clip-rule="evenodd" d="M8.27893 51.6104C7.76568 51.0985 7.76456 50.2675 8.27643 49.7543L13.3109 44.7061C13.8228 44.1929 14.6538 44.1918 15.1671 44.7036C15.6803 45.2155 15.6814 46.0465 15.1696 46.5598L10.1351 51.6079C9.6232 52.1212 8.79218 52.1223 8.27893 51.6104Z" fill="black"/>
<path fill-rule="evenodd" clip-rule="evenodd" d="M44.2855 15.5064C43.7723 14.9945 43.7712 14.1635 44.283 13.6503L49.3175 8.60214C49.8294 8.08889 50.6604 8.08776 51.1736 8.59963C51.6869 9.1115 51.688 9.94252 51.1762 10.4558L46.1417 15.5039C45.6298 16.0172 44.7988 16.0183 44.2855 15.5064Z" fill="black"/>
<path d="M68.807 61.9565L28.9196 62.0103C23.6944 62.0174 19.4429 57.7724 19.4359 52.5521C19.4295 47.8589 22.78 43.9169 27.4077 43.1848C28.8204 42.9613 28.541 43.0341 28.5388 41.4282C28.5335 37.4609 31.7557 34.2299 35.7231 34.2246C36.7462 34.2232 37.1799 34.332 37.8713 34.5498C39.1238 34.9444 38.9588 34.9978 39.4464 33.9362C41.8209 28.7665 47.3211 26.2294 52.8048 26.222C61.3261 26.2105 68.5401 32.9003 68.2824 41.6579L68.2825 41.6928C68.2843 43.045 68.2179 42.9436 69.5322 43.0433C74.4248 43.4146 78.2635 47.5607 78.2702 52.4727C78.2772 57.6979 74.0322 61.9494 68.812 61.9565L68.807 61.9565Z" fill="white"/>
<path fill-rule="evenodd" clip-rule="evenodd" d="M52.8064 27.5342C47.6749 27.5411 42.7401 29.9091 40.6389 34.4837C40.6132 34.5397 40.5844 34.6042 40.5542 34.6718C40.4804 34.8367 40.3983 35.0203 40.3321 35.1462C40.2402 35.3208 39.9888 35.7865 39.4301 36.0085C38.9137 36.2137 38.4281 36.0869 38.2483 36.04L38.2457 36.0393C38.0936 35.9997 37.8939 35.9353 37.6974 35.8719C37.6224 35.8478 37.5479 35.8237 37.4767 35.8013C36.8877 35.6157 36.5888 35.5356 35.7246 35.5367C32.4821 35.5411 29.8468 38.1836 29.8511 41.4261C29.8515 41.6767 29.8578 41.8449 29.864 42.0094C29.8677 42.1092 29.8714 42.2077 29.8737 42.3223C29.8739 42.3296 29.874 42.3373 29.8742 42.3455C29.8785 42.5372 29.8887 42.9942 29.6748 43.4171C29.377 44.0057 28.8496 44.2146 28.544 44.3027C28.2995 44.3731 27.9879 44.422 27.7069 44.466C27.675 44.471 27.6435 44.4759 27.6126 44.4808C23.6265 45.1114 20.7427 48.5 20.7482 52.55C20.7543 57.0459 24.4178 60.7036 28.9176 60.6975L68.81 60.6437C73.3058 60.6376 76.9636 56.974 76.9575 52.4742C76.9518 48.2455 73.6393 44.6709 69.4327 44.3518C69.3709 44.3471 69.3059 44.3425 69.2397 44.3378C69.0164 44.3222 68.7785 44.3055 68.596 44.2793C68.3762 44.2477 67.8638 44.164 67.4621 43.74C67.0582 43.3136 67.0036 42.7949 66.9852 42.5645C66.9687 42.3586 66.9692 42.0975 66.9697 41.85C66.9698 41.7973 66.9699 41.7451 66.9698 41.6942L66.9697 41.6392L66.9703 41.619C67.2043 33.6679 60.6549 27.5236 52.8064 27.5342ZM38.2916 33.3059C40.9591 27.5976 46.9946 24.917 52.8028 24.9092C61.9904 24.8968 69.8643 32.1218 69.5948 41.6757L69.5948 41.6907C69.5948 41.7044 69.5948 41.7181 69.5948 41.7315C69.6068 41.7324 69.619 41.7334 69.6313 41.7343C75.2099 42.1576 79.5749 46.8753 79.5825 52.4706C79.5905 58.4211 74.7582 63.2606 68.8136 63.2687L28.9212 63.3225C22.9707 63.3306 18.1312 58.4982 18.1232 52.5536C18.116 47.2172 21.9332 42.7217 27.2024 41.8881C27.2128 41.8864 27.2231 41.8848 27.2332 41.8832C27.2294 41.7498 27.2264 41.5987 27.2262 41.4297C27.2198 36.7374 31.0289 32.9181 35.7211 32.9118C36.9033 32.9102 37.4718 33.0476 38.2655 33.2976C38.2743 33.3004 38.283 33.3031 38.2916 33.3059ZM27.8171 41.7804C27.8169 41.7804 27.8167 41.7805 27.8165 41.7805C27.8217 41.7788 27.8222 41.7789 27.8171 41.7804Z" fill="black"/>
<path fill-rule="evenodd" clip-rule="evenodd" d="M40.9843 65.3361C41.6251 65.675 41.8698 66.4692 41.5309 67.1099L36.8656 75.9311C36.5267 76.5718 35.7325 76.8165 35.0917 76.4777C34.451 76.1388 34.2062 75.3446 34.5451 74.7038L39.2105 65.8827C39.5494 65.2419 40.3435 64.9972 40.9843 65.3361Z" fill="black"/>
<path fill-rule="evenodd" clip-rule="evenodd" d="M57.1171 65.9962C57.7579 66.3351 58.0026 67.1293 57.6637 67.7701L52.9984 76.5912C52.6595 77.232 51.8653 77.4767 51.2245 77.1378C50.5838 76.7989 50.339 76.0047 50.6779 75.364L55.3433 66.5428C55.6822 65.9021 56.4764 65.6574 57.1171 65.9962Z" fill="black"/>
<path fill-rule="evenodd" clip-rule="evenodd" d="M45.3139 74.6461C45.9547 74.985 46.1994 75.7792 45.8605 76.42L41.1952 85.2411C40.8563 85.8819 40.0621 86.1266 39.4213 85.7877C38.7805 85.4488 38.5358 84.6546 38.8747 84.0139L43.5401 75.1927C43.879 74.552 44.6731 74.3073 45.3139 74.6461Z" fill="black"/>
</g>
<defs>
<clipPath id="clip0_528_636">
<rect width="79.2691" height="85.754" fill="white" transform="translate(0.243164 0.70166) rotate(-0.0773636)"/>
</clipPath>
</defs>
</svg>
