<svg width="61" height="62" viewBox="0 0 61 62" fill="none" xmlns="http://www.w3.org/2000/svg">
<g clip-path="url(#clip0_528_572)">
<path d="M46.456 31.388C46.4671 39.6354 39.7903 46.3303 31.5429 46.3414C23.2955 46.3525 16.6006 39.6757 16.5895 31.4283C16.5784 23.181 23.2552 16.4861 31.5026 16.475C39.75 16.4638 46.4448 23.1406 46.456 31.388Z" fill="white"/>
<path fill-rule="evenodd" clip-rule="evenodd" d="M31.5041 17.7876C23.9816 17.7978 17.8916 23.9042 17.9018 31.4267C17.912 38.9493 24.0184 45.0393 31.5409 45.0291C39.0635 45.0189 45.1534 38.9125 45.1433 31.39C45.1331 23.8674 39.0267 17.7775 31.5041 17.7876ZM15.2768 31.4303C15.2647 22.458 22.5283 15.1747 31.5006 15.1626C40.4729 15.1505 47.7561 22.4142 47.7683 31.3864C47.7804 40.3587 40.5167 47.642 31.5445 47.6541C22.5722 47.6662 15.2889 40.4026 15.2768 31.4303Z" fill="#333333"/>
<path fill-rule="evenodd" clip-rule="evenodd" d="M31.5041 17.7876C23.9816 17.7978 17.8916 23.9042 17.9018 31.4267C17.912 38.9493 24.0184 45.0393 31.5409 45.0291C39.0635 45.0189 45.1534 38.9125 45.1433 31.39C45.1331 23.8674 39.0267 17.7775 31.5041 17.7876ZM15.2768 31.4303C15.2647 22.458 22.5283 15.1747 31.5006 15.1626C40.4729 15.1505 47.7561 22.4142 47.7683 31.3864C47.7804 40.3587 40.5167 47.642 31.5445 47.6541C22.5722 47.6662 15.2889 40.4026 15.2768 31.4303Z" fill="black"/>
<path fill-rule="evenodd" clip-rule="evenodd" d="M31.5955 0.958315C32.3203 0.957336 32.9088 1.54417 32.9097 2.26903L32.9193 9.33924C32.9203 10.0641 32.3334 10.6525 31.6086 10.6535C30.8837 10.6545 30.2953 10.0677 30.2943 9.34278L30.2848 2.27258C30.2838 1.54771 30.8706 0.959294 31.5955 0.958315Z" fill="#333333"/>
<path fill-rule="evenodd" clip-rule="evenodd" d="M31.5955 0.958315C32.3203 0.957336 32.9088 1.54417 32.9097 2.26903L32.9193 9.33924C32.9203 10.0641 32.3334 10.6525 31.6086 10.6535C30.8837 10.6545 30.2953 10.0677 30.2943 9.34278L30.2848 2.27258C30.2838 1.54771 30.8706 0.959294 31.5955 0.958315Z" fill="black"/>
<path fill-rule="evenodd" clip-rule="evenodd" d="M31.6631 51.6375C32.388 51.6365 32.9764 52.2234 32.9774 52.9482L32.9869 60.0184C32.9879 60.7433 32.4011 61.3317 31.6762 61.3327C30.9513 61.3337 30.3629 60.7469 30.3619 60.022L30.3524 52.9518C30.3514 52.2269 30.9382 51.6385 31.6631 51.6375Z" fill="#333333"/>
<path fill-rule="evenodd" clip-rule="evenodd" d="M31.6631 51.6375C32.388 51.6365 32.9764 52.2234 32.9774 52.9482L32.9869 60.0184C32.9879 60.7433 32.4011 61.3317 31.6762 61.3327C30.9513 61.3337 30.3629 60.7469 30.3619 60.022L30.3524 52.9518C30.3514 52.2269 30.9382 51.6385 31.6631 51.6375Z" fill="black"/>
<path fill-rule="evenodd" clip-rule="evenodd" d="M60.9523 31.978C60.9533 32.7029 60.3665 33.2913 59.6416 33.2923L52.5714 33.3018C51.8465 33.3028 51.2581 32.716 51.2571 31.9911C51.2562 31.2663 51.843 30.6778 52.5679 30.6769L59.6381 30.6673C60.3629 30.6663 60.9514 31.2532 60.9523 31.978Z" fill="#333333"/>
<path fill-rule="evenodd" clip-rule="evenodd" d="M60.9523 31.978C60.9533 32.7029 60.3665 33.2913 59.6416 33.2923L52.5714 33.3018C51.8465 33.3028 51.2581 32.716 51.2571 31.9911C51.2562 31.2663 51.843 30.6778 52.5679 30.6769L59.6381 30.6673C60.3629 30.6663 60.9514 31.2532 60.9523 31.978Z" fill="black"/>
<path fill-rule="evenodd" clip-rule="evenodd" d="M10.2731 32.0469C10.2741 32.7718 9.68728 33.3602 8.96241 33.3611L1.8922 33.3707C1.16734 33.3717 0.578921 32.7848 0.577942 32.06C0.576963 31.3351 1.16379 30.7467 1.88866 30.7457L8.95887 30.7362C9.68374 30.7352 10.2722 31.322 10.2731 32.0469Z" fill="#333333"/>
<path fill-rule="evenodd" clip-rule="evenodd" d="M10.2731 32.0469C10.2741 32.7718 9.68728 33.3602 8.96241 33.3611L1.8922 33.3707C1.16734 33.3717 0.578921 32.7848 0.577942 32.06C0.576963 31.3351 1.16379 30.7467 1.88866 30.7457L8.95887 30.7362C9.68374 30.7352 10.2722 31.322 10.2731 32.0469Z" fill="black"/>
<path fill-rule="evenodd" clip-rule="evenodd" d="M51.212 53.3934C50.7001 53.9067 49.8691 53.9078 49.3558 53.3959L44.3497 48.4033C43.8364 47.8914 43.8353 47.0604 44.3472 46.5472C44.8591 46.0339 45.6901 46.0328 46.2033 46.5446L51.2095 51.5373C51.7227 52.0492 51.7238 52.8802 51.212 53.3934Z" fill="#333333"/>
<path fill-rule="evenodd" clip-rule="evenodd" d="M51.212 53.3934C50.7001 53.9067 49.8691 53.9078 49.3558 53.3959L44.3497 48.4033C43.8364 47.8914 43.8353 47.0604 44.3472 46.5472C44.8591 46.0339 45.6901 46.0328 46.2033 46.5446L51.2095 51.5373C51.7227 52.0492 51.7238 52.8802 51.212 53.3934Z" fill="black"/>
<path fill-rule="evenodd" clip-rule="evenodd" d="M15.3284 17.6053C14.8166 18.1186 13.9855 18.1197 13.4723 17.6079L8.46615 12.6152C7.95289 12.1033 7.95177 11.2723 8.46364 10.7591C8.97551 10.2458 9.80653 10.2447 10.3198 10.7566L15.3259 15.7492C15.8392 16.2611 15.8403 17.0921 15.3284 17.6053Z" fill="#333333"/>
<path fill-rule="evenodd" clip-rule="evenodd" d="M15.3284 17.6053C14.8166 18.1186 13.9855 18.1197 13.4723 17.6079L8.46615 12.6152C7.95289 12.1033 7.95177 11.2723 8.46364 10.7591C8.97551 10.2458 9.80653 10.2447 10.3198 10.7566L15.3259 15.7492C15.8392 16.2611 15.8403 17.0921 15.3284 17.6053Z" fill="black"/>
<path fill-rule="evenodd" clip-rule="evenodd" d="M8.5177 51.5948C8.00445 51.0829 8.00333 50.2519 8.5152 49.7386L13.5078 44.7325C14.0197 44.2193 14.8507 44.2181 15.364 44.73C15.8772 45.2419 15.8784 46.0729 15.3665 46.5861L10.3738 51.5923C9.86198 52.1055 9.03095 52.1067 8.5177 51.5948Z" fill="#333333"/>
<path fill-rule="evenodd" clip-rule="evenodd" d="M8.5177 51.5948C8.00445 51.0829 8.00333 50.2519 8.5152 49.7386L13.5078 44.7325C14.0197 44.2193 14.8507 44.2181 15.364 44.73C15.8772 45.2419 15.8784 46.0729 15.3665 46.5861L10.3738 51.5923C9.86198 52.1055 9.03095 52.1067 8.5177 51.5948Z" fill="black"/>
<path fill-rule="evenodd" clip-rule="evenodd" d="M44.3051 15.7105C43.7918 15.1986 43.7907 14.3676 44.3026 13.8544L49.2952 8.84823C49.8071 8.33497 50.6381 8.33385 51.1513 8.84572C51.6646 9.35759 51.6657 10.1886 51.1538 10.7019L46.1612 15.708C45.6493 16.2213 44.8183 16.2224 44.3051 15.7105Z" fill="#333333"/>
<path fill-rule="evenodd" clip-rule="evenodd" d="M44.3051 15.7105C43.7918 15.1986 43.7907 14.3676 44.3026 13.8544L49.2952 8.84823C49.8071 8.33497 50.6381 8.33385 51.1513 8.84572C51.6646 9.35759 51.6657 10.1886 51.1538 10.7019L46.1612 15.708C45.6493 16.2213 44.8183 16.2224 44.3051 15.7105Z" fill="black"/>
</g>
<defs>
<clipPath id="clip0_528_572">
<rect width="60.3744" height="60.3746" fill="white" transform="translate(0.535645 1) rotate(-0.0773636)"/>
</clipPath>
</defs>
</svg>
