<svg width="80" height="64" viewBox="0 0 80 64" fill="none" xmlns="http://www.w3.org/2000/svg">
<g clip-path="url(#clip0_528_680)">
<path d="M45.8889 30.84C45.8999 39.0184 39.279 45.6572 31.1007 45.6682C22.9223 45.6793 16.2835 39.0584 16.2724 30.88C16.2614 22.7016 22.8823 16.0628 31.0607 16.0518C39.239 16.0407 45.8778 22.6617 45.8889 30.84Z" fill="white"/>
<path fill-rule="evenodd" clip-rule="evenodd" d="M31.062 17.3635C23.6085 17.3735 17.5744 23.4239 17.5845 30.8774C17.5946 38.3309 23.645 44.365 31.0984 44.3549C38.5519 44.3449 44.586 38.2945 44.576 30.841C44.5659 23.3875 38.5155 17.3534 31.062 17.3635ZM14.9595 30.881C14.9475 21.9777 22.1552 14.7505 31.0585 14.7385C39.9617 14.7265 47.1889 21.9342 47.2009 30.8374C47.213 39.7407 40.0052 46.9679 31.102 46.9799C22.1988 46.9919 14.9715 39.7842 14.9595 30.881Z" fill="black"/>
<path fill-rule="evenodd" clip-rule="evenodd" d="M31.272 0.4881C31.9969 0.487122 32.5853 1.07395 32.5862 1.79882L32.5959 8.92832C32.5969 9.65319 32.01 10.2416 31.2852 10.2426C30.5603 10.2436 29.9719 9.65674 29.9709 8.93187L29.9613 1.80236C29.9603 1.07749 30.5471 0.489079 31.272 0.4881Z" fill="black"/>
<path fill-rule="evenodd" clip-rule="evenodd" d="M31.3408 51.4769C32.0657 51.4759 32.6541 52.0627 32.6551 52.7876L32.6647 59.9171C32.6657 60.642 32.0789 61.2304 31.354 61.2314C30.6291 61.2323 30.0407 60.6455 30.0397 59.9206L30.0301 52.7911C30.0291 52.0663 30.616 51.4778 31.3408 51.4769Z" fill="black"/>
<path fill-rule="evenodd" clip-rule="evenodd" d="M60.8159 31.3403C60.8168 32.0652 60.23 32.6536 59.5051 32.6546L52.3757 32.6642C51.6508 32.6652 51.0624 32.0784 51.0614 31.3535C51.0604 30.6286 51.6473 30.0402 52.3721 30.0392L59.5016 30.0296C60.2265 30.0286 60.8149 30.6155 60.8159 31.3403Z" fill="black"/>
<path fill-rule="evenodd" clip-rule="evenodd" d="M9.82709 31.4097C9.82806 32.1345 9.24124 32.723 8.51637 32.7239L1.3869 32.7336C0.662029 32.7345 0.0736139 32.1477 0.0726352 31.4228C0.0716564 30.698 0.658485 30.1096 1.38335 30.1086L8.51282 30.099C9.23769 30.098 9.82611 30.6848 9.82709 31.4097Z" fill="black"/>
<path fill-rule="evenodd" clip-rule="evenodd" d="M51.0225 53.2377C50.5107 53.7509 49.6796 53.752 49.1664 53.2402L44.1183 48.2057C43.605 47.6938 43.6039 46.8628 44.1158 46.3495C44.6276 45.8363 45.4587 45.8351 45.9719 46.347L51.02 51.3815C51.5333 51.8934 51.5344 52.7244 51.0225 53.2377Z" fill="black"/>
<path fill-rule="evenodd" clip-rule="evenodd" d="M14.9185 17.2308C14.4066 17.7441 13.5756 17.7452 13.0624 17.2333L8.01427 12.1988C7.50102 11.687 7.4999 10.8559 8.01177 10.3427C8.52363 9.82943 9.35465 9.82831 9.8679 10.3402L14.916 15.3747C15.4293 15.8866 15.4304 16.7176 14.9185 17.2308Z" fill="black"/>
<path fill-rule="evenodd" clip-rule="evenodd" d="M8.06629 51.4385C7.55303 50.9267 7.55191 50.0956 8.06378 49.5824L13.0983 44.5343C13.6101 44.021 14.4412 44.0199 14.9544 44.5318C15.4677 45.0436 15.4688 45.8747 14.9569 46.3879L9.92242 51.436C9.41056 51.9493 8.57954 51.9504 8.06629 51.4385Z" fill="black"/>
<path fill-rule="evenodd" clip-rule="evenodd" d="M44.0731 15.334C43.5599 14.8222 43.5587 13.9912 44.0706 13.4779L49.1051 8.42978C49.617 7.91652 50.448 7.9154 50.9612 8.42727C51.4745 8.93914 51.4756 9.77016 50.9637 10.2834L45.9293 15.3315C45.4174 15.8448 44.5864 15.8459 44.0731 15.334Z" fill="black"/>
<path d="M68.5936 61.7851L28.7062 61.839C23.481 61.846 19.2296 57.601 19.2225 52.3807C19.2162 47.6875 22.5667 43.7455 27.1943 43.0134C28.607 42.7899 28.3276 42.8627 28.3255 41.2568C28.3201 37.2895 31.5423 34.0585 35.5097 34.0532C36.5328 34.0518 36.9666 34.1606 37.6579 34.3784C38.9104 34.773 38.7454 34.8264 39.2331 33.7648C41.6076 28.5951 47.1077 26.058 52.5914 26.0506C61.1128 26.0391 68.3267 32.729 68.0691 41.4866L68.0691 41.5214C68.0709 42.8736 68.0045 42.7722 69.3188 42.8719C74.2114 43.2432 78.0502 47.3893 78.0568 52.3013C78.0639 57.5265 73.8188 61.778 68.5986 61.7851L68.5936 61.7851Z" fill="white"/>
<path fill-rule="evenodd" clip-rule="evenodd" d="M52.5932 27.3628C47.4618 27.3697 42.527 29.7377 40.4258 34.3123C40.4001 34.3683 40.3712 34.4328 40.341 34.5004C40.2673 34.6653 40.1852 34.8489 40.1189 34.9749C40.0271 35.1494 39.7757 35.6151 39.2169 35.8371C38.7005 36.0423 38.2149 35.9155 38.0352 35.8686L38.0325 35.8679C37.8805 35.8283 37.6807 35.7639 37.4843 35.7006C37.4093 35.6764 37.3348 35.6523 37.2636 35.6299C36.6746 35.4443 36.3756 35.3642 35.5115 35.3654C32.269 35.3697 29.6336 38.0123 29.638 41.2548C29.6383 41.5053 29.6447 41.6735 29.6508 41.838C29.6546 41.9378 29.6583 42.0363 29.6606 42.1509C29.6607 42.1582 29.6609 42.1659 29.6611 42.1741C29.6654 42.3658 29.6756 42.8229 29.4616 43.2457C29.1638 43.8343 28.6365 44.0432 28.3308 44.1313C28.0864 44.2017 27.7748 44.2506 27.4938 44.2946C27.4619 44.2996 27.4304 44.3045 27.3994 44.3094C23.4134 44.94 20.5296 48.3286 20.535 52.3787C20.5411 56.8745 24.2046 60.5322 28.7045 60.5261L68.5969 60.4723C73.0927 60.4662 76.7504 56.8026 76.7444 52.3028C76.7387 48.0741 73.4261 44.4996 69.2196 44.1804C69.1577 44.1757 69.0928 44.1711 69.0266 44.1665C68.8032 44.1508 68.5653 44.1341 68.3829 44.1079C68.163 44.0763 67.6506 43.9927 67.249 43.5687C66.845 43.1422 66.7905 42.6236 66.7721 42.3931C66.7556 42.1872 66.7561 41.9261 66.7565 41.6787C66.7566 41.6259 66.7567 41.5737 66.7567 41.5228L66.7566 41.4678L66.7572 41.4476C66.9911 33.4965 60.4418 27.3522 52.5932 27.3628ZM38.0785 33.1345C40.746 27.4262 46.7815 24.7456 52.5897 24.7378C61.7773 24.7254 69.6512 31.9504 69.3816 41.5043L69.3816 41.5193C69.3817 41.533 69.3817 41.5467 69.3817 41.5602C69.3937 41.5611 69.4059 41.562 69.4182 41.5629C74.9968 41.9862 79.3618 46.7039 79.3693 52.2992C79.3774 58.2497 74.5451 63.0892 68.6004 63.0973L28.708 63.1511C22.7575 63.1592 17.9181 58.3268 17.9101 52.3822C17.9029 47.0458 21.7201 42.5503 26.9892 41.7167C26.9997 41.715 27.01 41.7134 27.0201 41.7118C27.0163 41.5784 27.0133 41.4273 27.013 41.2583C27.0067 36.5661 30.8157 32.7467 35.508 32.7404C36.6901 32.7388 37.2587 32.8762 38.0524 33.1262C38.0611 33.129 38.0698 33.1318 38.0785 33.1345ZM27.6039 41.609C27.6037 41.609 27.6035 41.6091 27.6033 41.6091C27.6086 41.6074 27.6091 41.6075 27.6039 41.609Z" fill="black"/>
</g>
<defs>
<clipPath id="clip0_528_680">
<rect width="79.2685" height="62.6597" fill="white" transform="translate(0.0310059 0.530273) rotate(-0.0773636)"/>
</clipPath>
</defs>
</svg>
