<svg width="132" height="105" viewBox="0 0 132 105" fill="none" xmlns="http://www.w3.org/2000/svg">
<g clip-path="url(#clip0_528_302)">
<path d="M58.287 49.6834C58.3046 62.7677 68.9259 73.3603 82.0102 73.3427C95.0945 73.325 105.687 62.7038 105.669 49.6195C105.652 36.5351 95.0305 25.9425 81.9462 25.9602C68.8619 25.9779 58.2693 36.5991 58.287 49.6834Z" fill="white"/>
<path fill-rule="evenodd" clip-rule="evenodd" d="M81.9489 27.56C94.1504 27.5435 104.055 37.4214 104.072 49.623C104.088 61.8246 94.2101 71.7292 82.0085 71.7457C69.807 71.7622 59.9023 61.8842 59.8858 49.6827C59.8693 37.4811 69.7473 27.5764 81.9489 27.56ZM107.268 49.6187C107.249 35.6516 95.9116 24.3444 81.9445 24.3632C67.9775 24.3821 56.6702 35.7199 56.6891 49.687C56.708 63.654 68.0458 74.9613 82.0128 74.9424C95.9799 74.9236 107.287 63.5857 107.268 49.6187Z" fill="#F7DC85"/>
<path fill-rule="evenodd" clip-rule="evenodd" d="M81.9489 27.56C94.1504 27.5435 104.055 37.4214 104.072 49.623C104.088 61.8246 94.2101 71.7292 82.0085 71.7457C69.807 71.7622 59.9023 61.8842 59.8858 49.6827C59.8693 37.4811 69.7473 27.5764 81.9489 27.56ZM107.268 49.6187C107.249 35.6516 95.9116 24.3444 81.9445 24.3632C67.9775 24.3821 56.6702 35.7199 56.6891 49.687C56.708 63.654 68.0458 74.9613 82.0128 74.9424C95.9799 74.9236 107.287 63.5857 107.268 49.6187Z" fill="black"/>
<path fill-rule="evenodd" clip-rule="evenodd" d="M82.0415 1.05985C81.1587 1.06105 80.4441 1.77762 80.4453 2.66037L80.462 15.0696C80.4632 15.9523 81.1798 16.667 82.0625 16.6658C82.9453 16.6646 83.6599 15.948 83.6587 15.0653L83.642 2.65605C83.6408 1.7733 82.9242 1.05866 82.0415 1.05985Z" fill="#F7DC85"/>
<path fill-rule="evenodd" clip-rule="evenodd" d="M82.0415 1.05985C81.1587 1.06105 80.4441 1.77762 80.4453 2.66037L80.462 15.0696C80.4632 15.9523 81.1798 16.667 82.0625 16.6658C82.9453 16.6646 83.6599 15.948 83.6587 15.0653L83.642 2.65605C83.6408 1.7733 82.9242 1.05866 82.0415 1.05985Z" fill="black"/>
<path fill-rule="evenodd" clip-rule="evenodd" d="M82.1528 82.6385C81.2701 82.6397 80.5554 83.3562 80.5566 84.239L80.5734 96.6482C80.5745 97.5309 81.2911 98.2456 82.1739 98.2444C83.0566 98.2432 83.7713 97.5266 83.7701 96.6439L83.7533 84.2347C83.7521 83.3519 83.0355 82.6373 82.1528 82.6385Z" fill="#F7DC85"/>
<path fill-rule="evenodd" clip-rule="evenodd" d="M82.1528 82.6385C81.2701 82.6397 80.5554 83.3562 80.5566 84.239L80.5734 96.6482C80.5745 97.5309 81.2911 98.2456 82.1739 98.2444C83.0566 98.2432 83.7713 97.5266 83.7701 96.6439L83.7533 84.2347C83.7521 83.3519 83.0355 82.6373 82.1528 82.6385Z" fill="black"/>
<path fill-rule="evenodd" clip-rule="evenodd" d="M34.407 50.0501C34.4082 50.9328 35.1248 51.6475 36.0075 51.6463L48.4167 51.6295C49.2994 51.6283 50.0141 50.9118 50.0129 50.029C50.0117 49.1463 49.2951 48.4316 48.4124 48.4328L36.0032 48.4496C35.1205 48.4508 34.4058 49.1673 34.407 50.0501Z" fill="#F7DC85"/>
<path fill-rule="evenodd" clip-rule="evenodd" d="M34.407 50.0501C34.4082 50.9328 35.1248 51.6475 36.0075 51.6463L48.4167 51.6295C49.2994 51.6283 50.0141 50.9118 50.0129 50.029C50.0117 49.1463 49.2951 48.4316 48.4124 48.4328L36.0032 48.4496C35.1205 48.4508 34.4058 49.1673 34.407 50.0501Z" fill="black"/>
<path fill-rule="evenodd" clip-rule="evenodd" d="M115.984 49.9402C115.985 50.823 116.702 51.5376 117.584 51.5364L129.994 51.5197C130.876 51.5185 131.591 50.8019 131.59 49.9191C131.589 49.0364 130.872 48.3218 129.989 48.323L117.58 48.3397C116.697 48.3409 115.983 49.0575 115.984 49.9402Z" fill="#F7DC85"/>
<path fill-rule="evenodd" clip-rule="evenodd" d="M115.984 49.9402C115.985 50.823 116.702 51.5376 117.584 51.5364L129.994 51.5197C130.876 51.5185 131.591 50.8019 131.59 49.9191C131.589 49.0364 130.872 48.3218 129.989 48.323L117.58 48.3397C116.697 48.3409 115.983 49.0575 115.984 49.9402Z" fill="black"/>
<path fill-rule="evenodd" clip-rule="evenodd" d="M49.8177 85.1853C50.4428 85.8086 51.4548 85.8073 52.0781 85.1822L60.8409 76.3958C61.4642 75.7707 61.4629 74.7587 60.8378 74.1353C60.2128 73.512 59.2008 73.5134 58.5774 74.1384L49.8147 82.9249C49.1913 83.5499 49.1927 84.5619 49.8177 85.1853Z" fill="#F7DC85"/>
<path fill-rule="evenodd" clip-rule="evenodd" d="M49.8177 85.1853C50.4428 85.8086 51.4548 85.8073 52.0781 85.1822L60.8409 76.3958C61.4642 75.7707 61.4629 74.7587 60.8378 74.1353C60.2128 73.512 59.2008 73.5134 58.5774 74.1384L49.8147 82.9249C49.1913 83.5499 49.1927 84.5619 49.8177 85.1853Z" fill="black"/>
<path fill-rule="evenodd" clip-rule="evenodd" d="M107.421 27.4236C108.047 28.0469 109.059 28.0456 109.682 27.4205L118.445 18.634C119.068 18.009 119.067 16.997 118.442 16.3736C117.817 15.7503 116.805 15.7516 116.181 16.3767L107.418 25.1631C106.795 25.7882 106.796 26.8002 107.421 27.4236Z" fill="#F7DC85"/>
<path fill-rule="evenodd" clip-rule="evenodd" d="M107.421 27.4236C108.047 28.0469 109.059 28.0456 109.682 27.4205L118.445 18.634C119.068 18.009 119.067 16.997 118.442 16.3736C117.817 15.7503 116.805 15.7516 116.181 16.3767L107.418 25.1631C106.795 25.7882 106.796 26.8002 107.421 27.4236Z" fill="black"/>
<path fill-rule="evenodd" clip-rule="evenodd" d="M118.531 82.8314C119.155 82.2064 119.153 81.1944 118.528 80.571L109.742 71.8082C109.117 71.1849 108.105 71.1863 107.481 71.8113C106.858 72.4363 106.859 73.4484 107.484 74.0717L116.271 82.8345C116.896 83.4578 117.908 83.4565 118.531 82.8314Z" fill="#F7DC85"/>
<path fill-rule="evenodd" clip-rule="evenodd" d="M118.531 82.8314C119.155 82.2064 119.153 81.1944 118.528 80.571L109.742 71.8082C109.117 71.1849 108.105 71.1863 107.481 71.8113C106.858 72.4363 106.859 73.4484 107.484 74.0717L116.271 82.8345C116.896 83.4578 117.908 83.4565 118.531 82.8314Z" fill="black"/>
<path fill-rule="evenodd" clip-rule="evenodd" d="M60.771 25.2265C61.3943 24.6014 61.393 23.5894 60.7679 22.966L51.9815 14.2033C51.3565 13.5799 50.3444 13.5813 49.7211 14.2063C49.0977 14.8314 49.0991 15.8434 49.7241 16.4667L58.5106 25.2295C59.1356 25.8529 60.1476 25.8515 60.771 25.2265Z" fill="#F7DC85"/>
<path fill-rule="evenodd" clip-rule="evenodd" d="M60.771 25.2265C61.3943 24.6014 61.393 23.5894 60.7679 22.966L51.9815 14.2033C51.3565 13.5799 50.3444 13.5813 49.7211 14.2063C49.0977 14.8314 49.0991 15.8434 49.7241 16.4667L58.5106 25.2295C59.1356 25.8529 60.1476 25.8515 60.771 25.2265Z" fill="black"/>
<path d="M18.4613 103.689L86.0366 103.597C94.8889 103.585 102.072 96.3742 102.06 87.5303C102.049 79.5793 96.3551 72.9163 88.5119 71.6971C86.1176 71.325 86.5912 71.447 86.5875 68.7265C86.5784 62.0052 81.1047 56.5462 74.3834 56.5553C72.65 56.5576 71.9158 56.7439 70.7455 57.1161C68.6254 57.7904 68.9051 57.8801 68.0742 56.0837C64.0277 47.3364 54.6981 43.0634 45.4079 43.0759C30.9714 43.0954 18.7805 54.462 19.2571 69.2975L19.2572 69.3565C19.2603 71.6474 19.3723 71.4753 17.1462 71.6503C8.85907 72.3016 2.37463 79.3433 2.38586 87.6649C2.39782 96.5172 9.60898 103.7 18.4528 103.689L18.4613 103.689Z" fill="white"/>
<path fill-rule="evenodd" clip-rule="evenodd" d="M44.8139 44.2748C53.6751 44.2628 62.3157 48.3318 66.0273 56.3553C66.0789 56.4667 66.1328 56.5866 66.1872 56.7073C66.3087 56.9773 66.4322 57.2516 66.5353 57.4463C66.6825 57.7242 67.0209 58.3289 67.7441 58.6139C68.4188 58.8799 69.0659 58.716 69.3621 58.6378C69.6011 58.5748 69.9098 58.4743 70.2347 58.3686C70.3662 58.3258 70.5004 58.2822 70.6337 58.2398C71.6794 57.9072 72.2497 57.7563 73.7894 57.7542C79.628 57.7463 84.3851 62.4906 84.393 68.3291C84.3935 68.7604 84.3829 69.0681 84.373 69.3564C84.3673 69.5237 84.3617 69.6845 84.3587 69.8591L84.3583 69.8825C84.3525 70.2099 84.3412 70.846 84.6327 71.4183C85.0229 72.1843 85.7123 72.4664 86.167 72.5961C86.5408 72.7027 87.0264 72.7776 87.5136 72.8528C87.5658 72.8609 87.6181 72.8689 87.6702 72.877C94.7318 73.9747 99.8559 79.9653 99.8656 87.133C99.8763 95.0947 93.4072 101.589 85.4382 101.599L17.8545 101.691C9.89285 101.701 3.3988 95.2322 3.38804 87.2633C3.37793 79.7738 9.22341 73.4299 16.6752 72.8442C16.791 72.8351 16.9085 72.8265 17.0255 72.818C17.3991 72.7907 17.7667 72.7638 18.0508 72.7222C18.4035 72.6706 19.0819 72.5484 19.6048 71.9934C20.1304 71.4355 20.2107 70.7478 20.2391 70.3803C20.2639 70.0597 20.2621 69.6518 20.2603 69.2323C20.2599 69.1401 20.2595 69.0473 20.2593 68.9548L20.2592 68.8713L20.2584 68.8467C19.8134 54.9933 31.1967 44.2932 44.8139 44.2748ZM68.9286 55.0132C64.5474 45.5421 54.5288 41.065 44.8096 41.0781C29.5617 41.0987 16.5688 53.1192 17.0626 68.9244L17.0626 68.9591C17.0628 69.0799 17.0632 69.1883 17.0636 69.2882C17.0641 69.4046 17.0645 69.5096 17.0644 69.6095C16.99 69.6151 16.9106 69.6209 16.8236 69.6273C16.7021 69.6362 16.5684 69.646 16.4247 69.6573C7.30239 70.3743 0.178978 78.1138 0.191338 87.2676C0.204483 97.0031 8.13276 104.901 17.8588 104.887L85.4426 104.796C95.1781 104.783 103.075 96.8547 103.062 87.1287C103.05 78.3944 96.786 71.0589 88.1612 69.7182C88.118 69.7115 88.0762 69.705 88.0357 69.6988C87.854 69.6706 87.6996 69.6466 87.5632 69.6242C87.5637 69.6075 87.5643 69.5903 87.5648 69.5729C87.5755 69.249 87.5903 68.7983 87.5897 68.3248C87.5794 60.7208 81.3891 54.5472 73.7851 54.5575C71.8581 54.5601 70.9597 54.7816 69.6649 55.1934C69.4905 55.2489 69.3234 55.3033 69.1782 55.3505C69.1495 55.3599 69.1216 55.3689 69.0947 55.3777C69.0447 55.2668 68.9888 55.1432 68.9286 55.0132ZM87.0194 69.5145C87.0167 69.5135 87.0153 69.513 87.0152 69.513C87.0151 69.513 87.0164 69.5135 87.0194 69.5145Z" fill="#75B8F5"/>
<path fill-rule="evenodd" clip-rule="evenodd" d="M44.8139 44.2748C53.6751 44.2628 62.3157 48.3318 66.0273 56.3553C66.0789 56.4667 66.1328 56.5866 66.1872 56.7073C66.3087 56.9773 66.4322 57.2516 66.5353 57.4463C66.6825 57.7242 67.0209 58.3289 67.7441 58.6139C68.4188 58.8799 69.0659 58.716 69.3621 58.6378C69.6011 58.5748 69.9098 58.4743 70.2347 58.3686C70.3662 58.3258 70.5004 58.2822 70.6337 58.2398C71.6794 57.9072 72.2497 57.7563 73.7894 57.7542C79.628 57.7463 84.3851 62.4906 84.393 68.3291C84.3935 68.7604 84.3829 69.0681 84.373 69.3564C84.3673 69.5237 84.3617 69.6845 84.3587 69.8591L84.3583 69.8825C84.3525 70.2099 84.3412 70.846 84.6327 71.4183C85.0229 72.1843 85.7123 72.4664 86.167 72.5961C86.5408 72.7027 87.0264 72.7776 87.5136 72.8528C87.5658 72.8609 87.6181 72.8689 87.6702 72.877C94.7318 73.9747 99.8559 79.9653 99.8656 87.133C99.8763 95.0947 93.4072 101.589 85.4382 101.599L17.8545 101.691C9.89285 101.701 3.3988 95.2322 3.38804 87.2633C3.37793 79.7738 9.22341 73.4299 16.6752 72.8442C16.791 72.8351 16.9085 72.8265 17.0255 72.818C17.3991 72.7907 17.7667 72.7638 18.0508 72.7222C18.4035 72.6706 19.0819 72.5484 19.6048 71.9934C20.1304 71.4355 20.2107 70.7478 20.2391 70.3803C20.2639 70.0597 20.2621 69.6518 20.2603 69.2323C20.2599 69.1401 20.2595 69.0473 20.2593 68.9548L20.2592 68.8713L20.2584 68.8467C19.8134 54.9933 31.1967 44.2932 44.8139 44.2748ZM68.9286 55.0132C64.5474 45.5421 54.5288 41.065 44.8096 41.0781C29.5617 41.0987 16.5688 53.1192 17.0626 68.9244L17.0626 68.9591C17.0628 69.0799 17.0632 69.1883 17.0636 69.2882C17.0641 69.4046 17.0645 69.5096 17.0644 69.6095C16.99 69.6151 16.9106 69.6209 16.8236 69.6273C16.7021 69.6362 16.5684 69.646 16.4247 69.6573C7.30239 70.3743 0.178978 78.1138 0.191338 87.2676C0.204483 97.0031 8.13276 104.901 17.8588 104.887L85.4426 104.796C95.1781 104.783 103.075 96.8547 103.062 87.1287C103.05 78.3944 96.786 71.0589 88.1612 69.7182C88.118 69.7115 88.0762 69.705 88.0357 69.6988C87.854 69.6706 87.6996 69.6466 87.5632 69.6242C87.5637 69.6075 87.5643 69.5903 87.5648 69.5729C87.5755 69.249 87.5903 68.7983 87.5897 68.3248C87.5794 60.7208 81.3891 54.5472 73.7851 54.5575C71.8581 54.5601 70.9597 54.7816 69.6649 55.1934C69.4905 55.2489 69.3234 55.3033 69.1782 55.3505C69.1495 55.3599 69.1216 55.3689 69.0947 55.3777C69.0447 55.2668 68.9888 55.1432 68.9286 55.0132ZM87.0194 69.5145C87.0167 69.5135 87.0153 69.513 87.0152 69.513C87.0151 69.513 87.0164 69.5135 87.0194 69.5145Z" fill="white"/>
<path fill-rule="evenodd" clip-rule="evenodd" d="M44.8139 44.2748C53.6751 44.2628 62.3157 48.3318 66.0273 56.3553C66.0789 56.4667 66.1328 56.5866 66.1872 56.7073C66.3087 56.9773 66.4322 57.2516 66.5353 57.4463C66.6825 57.7242 67.0209 58.3289 67.7441 58.6139C68.4188 58.8799 69.0659 58.716 69.3621 58.6378C69.6011 58.5748 69.9098 58.4743 70.2347 58.3686C70.3662 58.3258 70.5004 58.2822 70.6337 58.2398C71.6794 57.9072 72.2497 57.7563 73.7894 57.7542C79.628 57.7463 84.3851 62.4906 84.393 68.3291C84.3935 68.7604 84.3829 69.0681 84.373 69.3564C84.3673 69.5237 84.3617 69.6845 84.3587 69.8591L84.3583 69.8825C84.3525 70.2099 84.3412 70.846 84.6327 71.4183C85.0229 72.1843 85.7123 72.4664 86.167 72.5961C86.5408 72.7027 87.0264 72.7776 87.5136 72.8528C87.5658 72.8609 87.6181 72.8689 87.6702 72.877C94.7318 73.9747 99.8559 79.9653 99.8656 87.133C99.8763 95.0947 93.4072 101.589 85.4382 101.599L17.8545 101.691C9.89285 101.701 3.3988 95.2322 3.38804 87.2633C3.37793 79.7738 9.22341 73.4299 16.6752 72.8442C16.791 72.8351 16.9085 72.8265 17.0255 72.818C17.3991 72.7907 17.7667 72.7638 18.0508 72.7222C18.4035 72.6706 19.0819 72.5484 19.6048 71.9934C20.1304 71.4355 20.2107 70.7478 20.2391 70.3803C20.2639 70.0597 20.2621 69.6518 20.2603 69.2323C20.2599 69.1401 20.2595 69.0473 20.2593 68.9548L20.2592 68.8713L20.2584 68.8467C19.8134 54.9933 31.1967 44.2932 44.8139 44.2748ZM68.9286 55.0132C64.5474 45.5421 54.5288 41.065 44.8096 41.0781C29.5617 41.0987 16.5688 53.1192 17.0626 68.9244L17.0626 68.9591C17.0628 69.0799 17.0632 69.1883 17.0636 69.2882C17.0641 69.4046 17.0645 69.5096 17.0644 69.6095C16.99 69.6151 16.9106 69.6209 16.8236 69.6273C16.7021 69.6362 16.5684 69.646 16.4247 69.6573C7.30239 70.3743 0.178978 78.1138 0.191338 87.2676C0.204483 97.0031 8.13276 104.901 17.8588 104.887L85.4426 104.796C95.1781 104.783 103.075 96.8547 103.062 87.1287C103.05 78.3944 96.786 71.0589 88.1612 69.7182C88.118 69.7115 88.0762 69.705 88.0357 69.6988C87.854 69.6706 87.6996 69.6466 87.5632 69.6242C87.5637 69.6075 87.5643 69.5903 87.5648 69.5729C87.5755 69.249 87.5903 68.7983 87.5897 68.3248C87.5794 60.7208 81.3891 54.5472 73.7851 54.5575C71.8581 54.5601 70.9597 54.7816 69.6649 55.1934C69.4905 55.2489 69.3234 55.3033 69.1782 55.3505C69.1495 55.3599 69.1216 55.3689 69.0947 55.3777C69.0447 55.2668 68.9888 55.1432 68.9286 55.0132ZM87.0194 69.5145C87.0167 69.5135 87.0153 69.513 87.0152 69.513C87.0151 69.513 87.0164 69.5135 87.0194 69.5145Z" fill="black"/>
</g>
<defs>
<clipPath id="clip0_528_302">
<rect width="131.449" height="103.741" fill="white" transform="translate(0.0751953 1.17041) rotate(-0.0773636)"/>
</clipPath>
</defs>
</svg>
