<svg width="31" height="69" viewBox="0 0 31 69" fill="none" xmlns="http://www.w3.org/2000/svg">
<g clip-path="url(#clip0_528_708)">
<path d="M14.0462 1.09088C17.7201 1.08592 19.4627 3.73593 19.4683 7.90611L19.5149 42.4619C23.7928 43.9291 27.0821 48.0461 27.0908 54.496C27.0995 60.9459 22.604 67.0229 14.1352 67.0343C5.66646 67.0458 1.15374 60.3627 1.14586 54.531C1.13799 48.6994 4.42219 44.1613 8.66525 42.4804L8.61858 7.92076C8.61295 3.75058 10.3723 1.09584 14.0462 1.09088Z" fill="white"/>
<path fill-rule="evenodd" clip-rule="evenodd" d="M9.09791 2.29678C10.226 0.808049 11.9206 0.0219902 14.0447 0.019122C16.1694 0.0162532 17.8616 0.798324 18.9878 2.28617C20.0776 3.72593 20.5375 5.69476 20.5405 7.90515L20.5862 41.7228C24.974 43.5544 28.1543 47.9913 28.163 54.495C28.1677 57.9648 26.9607 61.3678 24.5743 63.9134C22.1753 66.4724 18.6439 68.101 14.1367 68.1071C4.9825 68.1194 0.0821236 60.8591 0.0735817 54.533C0.0655696 48.5992 3.25191 43.8266 7.59202 41.7782L7.5463 7.9227C7.54331 5.7095 8.00507 3.739 9.09791 2.29678ZM10.8071 3.59194C10.1032 4.52087 9.68816 5.96282 9.6908 7.9198L9.73747 42.4795C9.73806 42.9198 9.46946 43.3157 9.06012 43.4778C5.25631 44.9847 2.21076 49.1056 2.21808 54.5301C2.22529 59.8672 6.35036 65.9731 14.1338 65.9626C18.0953 65.9572 21.046 64.5415 23.0098 62.4467C24.9861 60.3385 26.0226 57.4781 26.0185 54.4979C26.0104 48.4542 22.9654 44.7794 19.1671 43.4767C18.7342 43.3282 18.4433 42.9215 18.4427 42.4639L18.396 7.90805C18.3934 5.94827 17.9792 4.507 17.2779 3.58045C16.6129 2.70199 15.5968 2.16153 14.0476 2.16362C12.4978 2.16572 11.4758 2.70951 10.8071 3.59194Z" fill="#333333"/>
<path fill-rule="evenodd" clip-rule="evenodd" d="M9.09791 2.29678C10.226 0.808049 11.9206 0.0219902 14.0447 0.019122C16.1694 0.0162532 17.8616 0.798324 18.9878 2.28617C20.0776 3.72593 20.5375 5.69476 20.5405 7.90515L20.5862 41.7228C24.974 43.5544 28.1543 47.9913 28.163 54.495C28.1677 57.9648 26.9607 61.3678 24.5743 63.9134C22.1753 66.4724 18.6439 68.101 14.1367 68.1071C4.9825 68.1194 0.0821236 60.8591 0.0735817 54.533C0.0655696 48.5992 3.25191 43.8266 7.59202 41.7782L7.5463 7.9227C7.54331 5.7095 8.00507 3.739 9.09791 2.29678ZM10.8071 3.59194C10.1032 4.52087 9.68816 5.96282 9.6908 7.9198L9.73747 42.4795C9.73806 42.9198 9.46946 43.3157 9.06012 43.4778C5.25631 44.9847 2.21076 49.1056 2.21808 54.5301C2.22529 59.8672 6.35036 65.9731 14.1338 65.9626C18.0953 65.9572 21.046 64.5415 23.0098 62.4467C24.9861 60.3385 26.0226 57.4781 26.0185 54.4979C26.0104 48.4542 22.9654 44.7794 19.1671 43.4767C18.7342 43.3282 18.4433 42.9215 18.4427 42.4639L18.396 7.90805C18.3934 5.94827 17.9792 4.507 17.2779 3.58045C16.6129 2.70199 15.5968 2.16153 14.0476 2.16362C12.4978 2.16572 11.4758 2.70951 10.8071 3.59194Z" fill="black"/>
<path d="M20.0796 54.524C20.0839 57.7115 17.5034 60.2989 14.3159 60.3032C11.1284 60.3075 8.54091 57.727 8.5366 54.5395C8.5323 51.352 11.1128 48.7646 14.3003 48.7603C17.4878 48.756 20.0753 51.3365 20.0796 54.524Z" fill="#333333"/>
<path d="M20.0796 54.524C20.0839 57.7115 17.5034 60.2989 14.3159 60.3032C11.1284 60.3075 8.54091 57.727 8.5366 54.5395C8.5323 51.352 11.1128 48.7646 14.3003 48.7603C17.4878 48.756 20.0753 51.3365 20.0796 54.524Z" fill="black"/>
<path fill-rule="evenodd" clip-rule="evenodd" d="M14.3155 60.0352C17.355 60.0311 19.8156 57.5638 19.8115 54.5243C19.8074 51.4849 17.3401 49.0242 14.3006 49.0283C11.2612 49.0324 8.80056 51.4997 8.80466 54.5392C8.80877 57.5786 11.2761 60.0393 14.3155 60.0352ZM14.3159 60.3032C17.5034 60.2989 20.0839 57.7115 20.0796 54.524C20.0753 51.3365 17.4878 48.756 14.3003 48.7603C11.1128 48.7646 8.5323 51.352 8.5366 54.5395C8.54091 57.727 11.1284 60.3075 14.3159 60.3032Z" fill="#333333"/>
<path fill-rule="evenodd" clip-rule="evenodd" d="M14.3155 60.0352C17.355 60.0311 19.8156 57.5638 19.8115 54.5243C19.8074 51.4849 17.3401 49.0242 14.3006 49.0283C11.2612 49.0324 8.80056 51.4997 8.80466 54.5392C8.80877 57.5786 11.2761 60.0393 14.3155 60.0352ZM14.3159 60.3032C17.5034 60.2989 20.0839 57.7115 20.0796 54.524C20.0753 51.3365 17.4878 48.756 14.3003 48.7603C11.1128 48.7646 8.5323 51.352 8.5366 54.5395C8.54091 57.727 11.1284 60.3075 14.3159 60.3032Z" fill="black"/>
<path fill-rule="evenodd" clip-rule="evenodd" d="M14.2439 20.2614C14.9101 20.2605 15.4509 20.7998 15.4518 21.466L15.4922 51.3324C15.4931 51.9986 14.9537 52.5394 14.2875 52.5403C13.6213 52.5412 13.0805 52.0018 13.0796 51.3356L13.0393 21.4693C13.0384 20.8031 13.5777 20.2623 14.2439 20.2614Z" fill="#333333"/>
<path fill-rule="evenodd" clip-rule="evenodd" d="M14.2439 20.2614C14.9101 20.2605 15.4509 20.7998 15.4518 21.466L15.4922 51.3324C15.4931 51.9986 14.9537 52.5394 14.2875 52.5403C13.6213 52.5412 13.0805 52.0018 13.0796 51.3356L13.0393 21.4693C13.0384 20.8031 13.5777 20.2623 14.2439 20.2614Z" fill="black"/>
<path fill-rule="evenodd" clip-rule="evenodd" d="M22.7454 18.3918C22.7447 17.8737 23.1642 17.453 23.6824 17.4523L29.1606 17.4449C29.6788 17.4442 30.0994 17.8637 30.1001 18.3819C30.1008 18.9001 29.6813 19.3207 29.1631 19.3214L23.6849 19.3288C23.1667 19.3295 22.7461 18.91 22.7454 18.3918Z" fill="#333333"/>
<path fill-rule="evenodd" clip-rule="evenodd" d="M22.7454 18.3918C22.7447 17.8737 23.1642 17.453 23.6824 17.4523L29.1606 17.4449C29.6788 17.4442 30.0994 17.8637 30.1001 18.3819C30.1008 18.9001 29.6813 19.3207 29.1631 19.3214L23.6849 19.3288C23.1667 19.3295 22.7461 18.91 22.7454 18.3918Z" fill="black"/>
<path fill-rule="evenodd" clip-rule="evenodd" d="M22.752 23.2947C22.7513 22.7765 23.1708 22.3559 23.689 22.3552L29.1672 22.3478C29.6854 22.3471 30.106 22.7666 30.1067 23.2847C30.1074 23.8029 29.6879 24.2235 29.1697 24.2242L23.6915 24.2316C23.1733 24.2323 22.7527 23.8128 22.752 23.2947Z" fill="#333333"/>
<path fill-rule="evenodd" clip-rule="evenodd" d="M22.752 23.2947C22.7513 22.7765 23.1708 22.3559 23.689 22.3552L29.1672 22.3478C29.6854 22.3471 30.106 22.7666 30.1067 23.2847C30.1074 23.8029 29.6879 24.2235 29.1697 24.2242L23.6915 24.2316C23.1733 24.2323 22.7527 23.8128 22.752 23.2947Z" fill="black"/>
<path fill-rule="evenodd" clip-rule="evenodd" d="M22.7586 28.198C22.7579 27.6798 23.1774 27.2592 23.6955 27.2585L29.1738 27.2511C29.692 27.2504 30.1126 27.6699 30.1133 28.1881C30.114 28.7062 29.6945 29.1268 29.1763 29.1275L23.6981 29.1349C23.1799 29.1356 22.7593 28.7161 22.7586 28.198Z" fill="#333333"/>
<path fill-rule="evenodd" clip-rule="evenodd" d="M22.7586 28.198C22.7579 27.6798 23.1774 27.2592 23.6955 27.2585L29.1738 27.2511C29.692 27.2504 30.1126 27.6699 30.1133 28.1881C30.114 28.7062 29.6945 29.1268 29.1763 29.1275L23.6981 29.1349C23.1799 29.1356 22.7593 28.7161 22.7586 28.198Z" fill="black"/>
<path fill-rule="evenodd" clip-rule="evenodd" d="M22.7654 33.1013C22.7647 32.5831 23.1842 32.1625 23.7024 32.1618L29.1806 32.1544C29.6988 32.1537 30.1194 32.5732 30.1201 33.0914C30.1208 33.6095 29.7013 34.0302 29.1832 34.0309L23.7049 34.0383C23.1867 34.039 22.7661 33.6195 22.7654 33.1013Z" fill="#333333"/>
<path fill-rule="evenodd" clip-rule="evenodd" d="M22.7654 33.1013C22.7647 32.5831 23.1842 32.1625 23.7024 32.1618L29.1806 32.1544C29.6988 32.1537 30.1194 32.5732 30.1201 33.0914C30.1208 33.6095 29.7013 34.0302 29.1832 34.0309L23.7049 34.0383C23.1867 34.039 22.7661 33.6195 22.7654 33.1013Z" fill="black"/>
</g>
<defs>
<clipPath id="clip0_528_708">
<rect width="30.1214" height="68.1259" fill="white"/>
</clipPath>
</defs>
</svg>
