<svg width="29" height="29" viewBox="0 0 29 29" fill="none" xmlns="http://www.w3.org/2000/svg">
<path fill-rule="evenodd" clip-rule="evenodd" d="M8.5481 8.56411C5.26982 11.8513 5.27701 17.1736 8.56415 20.4518C11.8513 23.7301 17.1736 23.7229 20.4519 20.4358C23.7302 17.1487 23.723 11.8263 20.4358 8.54806C17.1487 5.26978 11.8264 5.27697 8.5481 8.56411ZM7.25978 21.7597C3.25032 17.7611 3.24155 11.2692 7.24021 7.25975C11.2389 3.25028 17.7307 3.24151 21.7402 7.24017C25.7497 11.2388 25.7584 17.7307 21.7598 21.7402C17.7611 25.7496 11.2693 25.7584 7.25978 21.7597Z" fill="#333333"/>
<path fill-rule="evenodd" clip-rule="evenodd" d="M8.5481 8.56411C5.26982 11.8513 5.27701 17.1736 8.56415 20.4518C11.8513 23.7301 17.1736 23.7229 20.4519 20.4358C23.7302 17.1487 23.723 11.8263 20.4358 8.54806C17.1487 5.26978 11.8264 5.27697 8.5481 8.56411ZM7.25978 21.7597C3.25032 17.7611 3.24155 11.2692 7.24021 7.25975C11.2389 3.25028 17.7307 3.24151 21.7402 7.24017C25.7497 11.2388 25.7584 17.7307 21.7598 21.7402C17.7611 25.7496 11.2693 25.7584 7.25978 21.7597Z" fill="black"/>
<path fill-rule="evenodd" clip-rule="evenodd" d="M14.49 7.19797C15.0001 7.19728 15.4141 7.61022 15.4148 8.1203L15.4226 13.8907L19.586 15.6761C20.0548 15.8771 20.2719 16.4201 20.0709 16.8889C19.8698 17.3577 19.3268 17.5748 18.8581 17.3737L14.1358 15.3487C13.7968 15.2033 13.5768 14.8701 13.5763 14.5012L13.5677 8.12279C13.567 7.61272 13.9799 7.19866 14.49 7.19797Z" fill="#333333"/>
<path fill-rule="evenodd" clip-rule="evenodd" d="M14.49 7.19797C15.0001 7.19728 15.4141 7.61022 15.4148 8.1203L15.4226 13.8907L19.586 15.6761C20.0548 15.8771 20.2719 16.4201 20.0709 16.8889C19.8698 17.3577 19.3268 17.5748 18.8581 17.3737L14.1358 15.3487C13.7968 15.2033 13.5768 14.8701 13.5763 14.5012L13.5677 8.12279C13.567 7.61272 13.9799 7.19866 14.49 7.19797Z" fill="black"/>
</svg>
