<svg width="23" height="18" viewBox="0 0 23 18" fill="none" xmlns="http://www.w3.org/2000/svg">
<g clip-path="url(#clip0_528_278)">
<path fill-rule="evenodd" clip-rule="evenodd" d="M18.2909 2.00488C16.7107 2.00701 15.4247 3.29547 15.4269 4.87669C15.4274 5.23708 15.1356 5.52962 14.7752 5.53011C14.4148 5.5306 14.1223 5.23884 14.1218 4.87845C14.1187 2.57616 15.9884 0.702905 18.2892 0.699799C20.59 0.696692 22.4647 2.56632 22.4678 4.86718C22.4709 7.16805 20.6013 9.04273 18.3004 9.04584L0.939686 9.06928C0.579299 9.06977 0.286754 8.77801 0.286267 8.41762C0.28578 8.05724 0.577537 7.76469 0.937924 7.7642L18.2987 7.74076C19.8788 7.73863 21.1649 6.44904 21.1627 4.86895C21.1606 3.28885 19.871 2.00274 18.2909 2.00488Z" fill="black"/>
<path fill-rule="evenodd" clip-rule="evenodd" d="M9.80798 2.74192C9.1291 2.74283 8.57575 3.29767 8.57667 3.97656C8.57715 4.33694 8.2854 4.62949 7.92501 4.62998C7.56462 4.63046 7.27208 4.33871 7.27159 3.97832C7.2697 2.57866 8.40656 1.43873 9.80621 1.43684C11.2059 1.43495 12.3458 2.57181 12.3477 3.97147C12.3496 5.37112 11.2127 6.51106 9.81307 6.51295L0.936492 6.52493C0.576105 6.52542 0.283559 6.23366 0.283073 5.87327C0.282586 5.51289 0.574343 5.22034 0.934729 5.21985L9.81131 5.20787C10.4902 5.20695 11.0435 4.65211 11.0426 3.97323C11.0417 3.29434 10.4869 2.741 9.80798 2.74192Z" fill="black"/>
<path fill-rule="evenodd" clip-rule="evenodd" d="M0.289944 10.967C0.289457 10.6066 0.581214 10.3141 0.941601 10.3136L18.2078 10.2903C18.2559 10.2902 18.2973 10.2943 18.3123 10.2958L18.3137 10.2959C18.3148 10.296 18.3159 10.2961 18.3171 10.2963C20.3304 10.3877 21.9486 12.0137 21.9514 14.0977C21.9542 16.2005 20.248 17.9113 18.1453 17.9141C16.0424 17.917 14.3317 16.2093 14.3288 14.108C14.3284 13.7476 14.6201 13.4551 14.9805 13.4546C15.3409 13.4541 15.6334 13.7459 15.6339 14.1063C15.6358 15.4871 16.7617 16.6109 18.1435 16.6091C19.5255 16.6072 20.6482 15.4815 20.6463 14.0995C20.6444 12.715 19.5715 11.6437 18.2265 11.5988C18.2104 11.5982 18.1944 11.5971 18.1785 11.5954L0.943363 11.6186C0.582976 11.6191 0.29043 11.3274 0.289944 10.967Z" fill="black"/>
</g>
<defs>
<clipPath id="clip0_528_278">
<rect width="22.1865" height="17.2141" fill="white" transform="translate(0.275879 0.724121) rotate(-0.0773636)"/>
</clipPath>
</defs>
</svg>
